<?xml version="1.0" standalone="no"?><!DOCTYPE svg PUBLIC "-//W3C//DTD SVG 1.1//EN" "http://www.w3.org/Graphics/SVG/1.1/DTD/svg11.dtd"><svg t="1766492114081" class="icon" viewBox="0 0 1024 1024" version="1.1" xmlns="http://www.w3.org/2000/svg" p-id="1943" id="mx_n_1766492114081" width="256" height="256" xmlns:xlink="http://www.w3.org/1999/xlink"><path d="M512 970.666667c-208.213333 0-377.6-169.386667-377.6-377.6-1.28-244.48 231.68-448 331.946667-524.373334a75.52 75.52 0 0 1 91.306666 0c100.266667 77.653333 333.226667 283.733333 331.946667 524.8 0 207.786667-169.386667 377.173333-377.6 377.173334z m0-853.333334c-2.133333 0-4.693333 0.853333-6.826667 2.56-72.106667 55.04-307.626667 251.733333-306.346666 473.173334 0 173.226667 140.8 313.6 313.6 313.6s313.6-140.373333 313.6-313.173334c1.28-218.453333-234.666667-417.706667-307.2-473.6a12.373333 12.373333 0 0 0-6.826667-2.56z" fill="#e6e6ea" p-id="1944"></path><path d="M512 970.666667c-17.493333 0-32-14.506667-32-32V85.333333c0-17.493333 14.506667-32 32-32s32 14.506667 32 32v853.333334c0 17.493333-14.506667 32-32 32z" fill="#e6e6ea" p-id="1945"></path><path d="M512 840.96c-11.946667 0-23.466667-6.826667-29.013333-17.92a31.744 31.744 0 0 1 14.933333-42.666667l328.533333-159.573333c15.786667-7.68 34.986667-0.853333 42.666667 14.933333 7.68 15.786667 1.28 34.986667-14.933333 42.666667l-328.533334 159.573333c-4.266667 1.706667-8.96 2.986667-13.653333 2.986667zM512 627.626667c-11.946667 0-23.466667-6.826667-29.013333-17.92a31.744 31.744 0 0 1 14.933333-42.666667l314.453333-152.746667c15.786667-7.68 34.986667-1.28 42.666667 14.933334 7.68 16.213333 1.28 34.986667-14.933333 42.666666l-314.453334 152.746667c-4.266667 1.706667-8.96 2.986667-13.653333 2.986667zM512 414.293333c-11.946667 0-23.466667-6.826667-29.013333-17.92a31.744 31.744 0 0 1 14.933333-42.666666l214.613333-104.106667c15.786667-7.68 34.986667-0.853333 42.666667 14.933333 7.68 15.786667 1.28 34.986667-14.933333 42.666667l-214.613334 104.106667c-4.266667 1.706667-8.96 2.986667-13.653333 2.986666z" fill="#e6e6ea" p-id="1946"></path></svg>