<?xml version="1.0" standalone="no"?><!DOCTYPE svg PUBLIC "-//W3C//DTD SVG 1.1//EN" "http://www.w3.org/Graphics/SVG/1.1/DTD/svg11.dtd"><svg t="1766506249988" class="icon" viewBox="0 0 1024 1024" version="1.1" xmlns="http://www.w3.org/2000/svg" p-id="28615" xmlns:xlink="http://www.w3.org/1999/xlink" width="64" height="64"><path d="M106.666667 298.666667a21.333333 21.333333 0 0 1-21.333334-21.333334v-42.666666a21.333333 21.333333 0 0 1 21.333334-21.333334H213.333333V106.666667a21.333333 21.333333 0 0 1 21.333334-21.333334h42.666666a21.333333 21.333333 0 0 1 21.333334 21.333334V213.333333h426.666666a85.333333 85.333333 0 0 1 85.333334 85.333334v341.333333h-85.333334V298.666667z m810.666666 426.666666H298.666667V384H213.333333v341.333333a85.333333 85.333333 0 0 0 85.333334 85.333334h426.666666v106.666666a21.333333 21.333333 0 0 0 21.333334 21.333334h42.666666a21.333333 21.333333 0 0 0 21.333334-21.333334V810.666667h106.666666a21.333333 21.333333 0 0 0 21.333334-21.333334v-42.666666a21.333333 21.333333 0 0 0-21.333334-21.333334z" p-id="28616" fill="#e6e6ea"></path></svg>