<?xml version="1.0" encoding="UTF-8"?>
<svg id="_图层_1" data-name="图层 1" xmlns="http://www.w3.org/2000/svg" viewBox="0 0 48.65 52">
  <defs>
    <style>
      .cls-1 {
        fill: #e6e6ea;
      }
    </style>
  </defs>
  <path class="cls-1" d="M16.25,50c0,1.07.93,2,2,2h25.73c2.53,0,4.67-2.13,4.67-4.67V4.67C48.65,2.13,46.52,0,43.98,0h-25.33c-.53,0-1.07.13-1.47.53L6.52,11.2c-.27.4-.53.93-.53,1.47v8.4c0,1.07.93,2,2,2s2-.93,2-2v-2.4h10c2.53,0,4.67-2.13,4.67-4.67V4h19.33c.4,0,.67.27.67.67v42.67c0,.4-.27.67-.67.67h-25.73c-1.07,0-2,.93-2,2ZM19.45,4h1.2v10c0,.4-.27.67-.67.67h-10v-1.07s9.47-9.6,9.47-9.6Z"/>
  <path class="cls-1" d="M.38,38.67l6.67,6.67c.4.4.93.53,1.47.53s1.07-.13,1.47-.53c.8-.8.8-2,0-2.8l-3.2-3.2h15.87c1.07,0,2-1.07,2-2.13s-.93-2-2-2H6.78s3.2-3.2,3.2-3.2c.8-.8.8-2,0-2.8s-2-.8-2.8,0l-6.67,6.67c-.67.8-.67,2.13-.13,2.8Z"/>
</svg>