<?xml version="1.0" encoding="UTF-8"?>
<svg id="_图层_1" data-name="图层 1" xmlns="http://www.w3.org/2000/svg" viewBox="0 0 57.59 64">
  <defs>
    <style>
      .cls-1 {
        fill: #e6e6ea;
      }
    </style>
  </defs>
  <path class="cls-1" d="M51.18,12.8c-1.16,0-2.26.31-3.2.86v-4.06c0-3.54-2.88-6.4-6.42-6.39-1.26,0-2.49.38-3.54,1.08-.88-2.49-3.25-4.28-6.04-4.28s-5.16,1.79-6.04,4.28c-2.94-1.96-6.92-1.17-8.88,1.77-.7,1.05-1.07,2.28-1.08,3.54v23.59l-4.31-7.47c-.81-1.5-2.19-2.6-3.84-3.05-1.58-.44-3.27-.2-4.68.65-2.9,1.74-4.01,5.68-2.46,8.77.1.2,2.14,4.38,8.51,17.12,3,6,6.29,10.29,9.79,12.75,2.74,1.93,4.64,2.03,4.99,2.03h16c2.72,0,5.25-.89,7.53-2.63,2.13-1.64,3.99-4.02,5.5-7.05,2.99-5.98,4.57-14.25,4.57-23.92v-11.2c0-3.53-2.87-6.4-6.4-6.4h0ZM54.38,30.4c0,9.17-1.46,16.95-4.23,22.48-1.8,3.61-5.04,7.92-10.17,7.92h-15.97c-.12,0-1.47-.16-3.5-1.68-2.03-1.52-5.14-4.71-8.44-11.33C5.58,34.82,3.59,30.73,3.57,30.69h0c-.8-1.62-.23-3.73,1.24-4.62.66-.4,1.45-.51,2.19-.3.81.23,1.49.77,1.88,1.51l.02.03,5,8.66c1.02,1.87,2.17,2.65,3.41,2.33,1.25-.32,1.88-1.56,1.88-3.7V9.6c0-1.76,1.44-3.2,3.2-3.2s3.2,1.44,3.2,3.2v20.8c0,.88.72,1.6,1.6,1.6s1.6-.72,1.6-1.6V6.4c0-1.76,1.44-3.2,3.2-3.2s3.2,1.44,3.2,3.2v24c0,.88.72,1.6,1.6,1.6s1.6-.72,1.6-1.6V9.6c0-1.76,1.44-3.2,3.2-3.2s3.2,1.44,3.2,3.2v24c0,.88.72,1.6,1.6,1.6s1.6-.72,1.6-1.6v-14.4c0-1.76,1.44-3.2,3.2-3.2s3.2,1.44,3.2,3.2v11.2h0Z"/>
</svg>