<?xml version="1.0" standalone="no"?><!DOCTYPE svg PUBLIC "-//W3C//DTD SVG 1.1//EN" "http://www.w3.org/Graphics/SVG/1.1/DTD/svg11.dtd"><svg t="1766504947434" class="icon" viewBox="0 0 1024 1024" version="1.1" xmlns="http://www.w3.org/2000/svg" p-id="27546" xmlns:xlink="http://www.w3.org/1999/xlink" width="64" height="64"><path d="M331.050667 85.333333h361.898666c34.346667 0 62.72 0 85.76 1.877334 24.021333 1.962667 46.08 6.186667 66.773334 16.725333a170.666667 170.666667 0 0 1 74.581333 74.581333c10.538667 20.693333 14.762667 42.752 16.725333 66.730667C938.666667 268.373333 938.666667 296.704 938.666667 331.008v361.941333c0 34.346667 0 62.72-1.877334 85.76-1.962667 24.021333-6.186667 46.08-16.725333 66.773334a170.666667 170.666667 0 0 1-74.581333 74.581333c-20.693333 10.538667-42.752 14.762667-66.730667 16.725333-23.082667 1.877333-51.456 1.877333-85.76 1.877334H682.666667a42.666667 42.666667 0 1 1 0-85.333334h8.533333c36.565333 0 61.397333 0 80.597333-1.621333 18.688-1.493333 28.288-4.266667 34.944-7.68a85.333333 85.333333 0 0 0 37.290667-37.290667c3.413333-6.656 6.186667-16.213333 7.68-34.944 1.578667-19.2 1.621333-44.032 1.621333-80.597333V332.8c0-36.565333 0-61.397333-1.621333-80.597333-1.493333-18.688-4.266667-28.288-7.68-34.944a85.333333 85.333333 0 0 0-37.290667-37.290667c-6.656-3.413333-16.213333-6.186667-34.944-7.68C752.597333 170.666667 727.765333 170.666667 691.2 170.666667H332.8c-36.565333 0-61.397333 0-80.597333 1.621333-18.688 1.493333-28.288 4.266667-34.944 7.68a85.333333 85.333333 0 0 0-37.290667 37.290667c-3.413333 6.656-6.186667 16.213333-7.68 34.944C170.666667 271.402667 170.666667 296.234667 170.666667 332.8V341.333333a42.666667 42.666667 0 1 1-85.333334 0v-10.282666c0-34.346667 0-62.72 1.877334-85.76 1.962667-24.021333 6.186667-46.08 16.725333-66.773334a170.666667 170.666667 0 0 1 74.581333-74.581333c20.693333-10.538667 42.752-14.762667 66.730667-16.725333C268.373333 85.333333 296.704 85.333333 331.008 85.333333z" p-id="27547" fill="#e6e6ea"></path><path d="M512 341.333333a42.666667 42.666667 0 1 1 0-85.333333h213.333333a42.666667 42.666667 0 0 1 42.666667 42.666667v213.333333a42.666667 42.666667 0 1 1-85.333333 0V401.664l-140.501334 140.501333c7.125333 15.232 9.898667 31.018667 11.178667 46.848 1.322667 16 1.322667 35.413333 1.322667 57.898667v114.176c0 22.528 0 41.898667-1.28 57.898667-1.408 16.853333-4.437333 33.664-12.672 49.792a128 128 0 0 1-55.936 55.936c-16.128 8.234667-32.938667 11.264-49.792 12.629333C418.986667 938.666667 399.573333 938.666667 377.130667 938.666667H262.826667c-22.485333 0-41.856 0-57.856-1.28-16.853333-1.408-33.664-4.437333-49.792-12.672a128 128 0 0 1-55.936-55.936c-8.234667-16.128-11.264-32.938667-12.629334-49.792A763.733333 763.733333 0 0 1 85.333333 761.088v-114.218667c0-22.485333 0-41.856 1.28-57.856 1.408-16.853333 4.437333-33.664 12.672-49.792a128 128 0 0 1 55.936-55.936c16.128-8.234667 32.938667-11.264 49.792-12.629333C221.013333 469.333333 240.426667 469.333333 262.869333 469.333333H377.173333c22.485333 0 41.856 0 57.856 1.28 15.829333 1.28 31.573333 4.096 46.848 11.221334L622.336 341.333333H512z m-300.032 214.357334c-11.605333 0.938667-15.914667 2.56-18.005333 3.626666a42.666667 42.666667 0 0 0-18.645334 18.645334c-1.066667 2.133333-2.688 6.4-3.626666 18.005333C170.666667 608 170.666667 623.914667 170.666667 648.533333v110.933334c0 24.618667 0 40.490667 1.024 52.565333 0.938667 11.605333 2.56 15.872 3.626666 18.005333a42.666667 42.666667 0 0 0 18.645334 18.645334c2.133333 1.066667 6.4 2.688 18.005333 3.626666C224 853.333333 239.914667 853.333333 264.533333 853.333333h110.933334c24.618667 0 40.490667 0 52.565333-1.024 11.605333-0.938667 15.914667-2.56 18.005333-3.626666a42.666667 42.666667 0 0 0 18.645334-18.645334c1.066667-2.133333 2.688-6.4 3.626666-18.005333C469.333333 800 469.333333 784.085333 469.333333 759.466667v-110.933334c0-24.618667 0-40.490667-1.024-52.565333-0.938667-11.605333-2.56-15.914667-3.626666-18.005333a42.666667 42.666667 0 0 0-18.645334-18.645334c-2.133333-1.066667-6.4-2.688-18.005333-3.626666C416 554.666667 400.085333 554.666667 375.466667 554.666667H264.533333c-24.618667 0-40.490667 0-52.565333 1.024z" p-id="27548" fill="#e6e6ea"></path></svg>