<?xml version="1.0" standalone="no"?><!DOCTYPE svg PUBLIC "-//W3C//DTD SVG 1.1//EN" "http://www.w3.org/Graphics/SVG/1.1/DTD/svg11.dtd"><svg t="1766504822233" class="icon" viewBox="0 0 1024 1024" version="1.1" xmlns="http://www.w3.org/2000/svg" p-id="6637" xmlns:xlink="http://www.w3.org/1999/xlink" width="64" height="64"><path d="M969.122043 996.080334L529.994467 27.921732a19.757897 19.757897 0 1 0-35.988934 0L54.877957 996.080334A19.753961 19.753961 0 0 0 72.872424 1024h878.25712a19.757897 19.757897 0 0 0 17.992499-27.919666z m-865.592306-11.596128L512 83.916545l408.470263 900.565693H103.529737z" fill="#e6e6ea" p-id="6638"></path><path d="M842.109802 895.397523l-71.17094-158.988189c-4.457778-9.960625-16.14444-14.420372-26.107033-9.962593-9.960625 4.459746-14.420372 16.146408-9.960625 26.107032l71.17094 158.98819a19.759865 19.759865 0 0 0 26.107033 9.962593c9.960625-4.459746 14.420372-16.146408 9.960625-26.107033zM725.843464 665.409619c-25.426065 0-25.469364 39.515794 0 39.515794 25.426065 0.001968 25.467396-39.515794 0-39.515794z" fill="#e6e6ea" p-id="6639"></path></svg>